<?xml version="1.0" encoding="UTF-8"?>
<svg version="1.1" xmlns="http://www.w3.org/2000/svg" width="228" height="52">
<path d="M0 0 C7.59 0 15.18 0 23 0 C23 2.31 23 4.62 23 7 C17.72 7 12.44 7 7 7 C7 8.98 7 10.96 7 13 C11.95 13 16.9 13 22 13 C22 15.31 22 17.62 22 20 C17.05 20 12.1 20 7 20 C7 22.97 7 25.94 7 29 C12.28 29 17.56 29 23 29 C23 31.31 23 33.62 23 36 C15.41 36 7.82 36 0 36 C0 24.12 0 12.24 0 0 Z " fill="#111111" transform="translate(0,5)"/>
<path d="M0 0 C2.31 0 4.62 0 7 0 C7 13.2 7 26.4 7 40 C4.69 40 2.38 40 0 40 C-0.33 39.34 -0.66 38.68 -1 38 C-1.99 38.66 -2.98 39.32 -4 40 C-10.90258449 40.66799205 -10.90258449 40.66799205 -14.875 38.25 C-18.79359134 34.10090329 -19.40149361 30.75056503 -19.24609375 25.18359375 C-18.89475764 22.06618284 -18.07503682 20.35170839 -16 18 C-12.41289073 15.55424368 -10.6138011 14.95907993 -6.25 15.25 C-3 16 -3 16 -1 17 C-0.67 11.39 -0.34 5.78 0 0 Z M-11 24 C-11.45024875 28.68672799 -11.45024875 28.68672799 -9.875 33 C-6.98192987 34.54297074 -5.06359725 33.91256088 -2 33 C0.15502531 29.76746204 0.46856135 28.74849077 0 25 C-1.01970318 23.06345052 -1.01970318 23.06345052 -3 22 C-7.51104481 21.44504417 -7.51104481 21.44504417 -11 24 Z " fill="#111111" transform="translate(46,1)"/>
<path d="M0 0 C2.31 0 4.62 0 7 0 C7.33 5.61 7.66 11.22 8 17 C8.99 17.33 9.98 17.66 11 18 C11.99 17.34 12.98 16.68 14 16 C14.38394667 13.22737745 14.60342248 10.65676472 14.6875 7.875 C14.72166016 7.12089844 14.75582031 6.36679687 14.79101562 5.58984375 C14.87354278 3.72708799 14.93844711 1.86356674 15 0 C17.31 0 19.62 0 22 0 C22 7.92 22 15.84 22 24 C18.66666667 24 15.33333333 24 12 24 C10.01146388 24.12625626 8.02292026 24.25274542 6.03515625 24.390625 C4 24 4 24 1.76171875 22.625 C-0.9844569 18.53313739 -0.4249297 14.55383879 -0.25 9.75 C-0.23195312 8.81414063 -0.21390625 7.87828125 -0.1953125 6.9140625 C-0.14825673 4.60832985 -0.08253713 2.30469055 0 0 Z " fill="#111111" transform="translate(59,17)"/>
<path d="M0 0 C2.70567626 1.82339052 4.53728718 3.07457436 6 6 C7.03037808 15.00844834 7.03037808 15.00844834 4.953125 19.0234375 C3.19292001 21.14603764 1.47511318 22.76244341 -1 24 C-8.46666667 24.35555556 -8.46666667 24.35555556 -12 22 C-12.33 26.29 -12.66 30.58 -13 35 C-14.32 35 -15.64 35 -17 35 C-17 23.45 -17 11.9 -17 0 C-15.68 0 -14.36 0 -13 0 C-12.67 0.66 -12.34 1.32 -12 2 C-11.319375 1.484375 -10.63875 0.96875 -9.9375 0.4375 C-6.08095465 -1.4497456 -4.11133505 -1.10125046 0 0 Z M-11.4375 5 C-13.43443621 8.83411753 -13.97123962 11.76573606 -13 16 C-11.1235883 19.21013047 -11.1235883 19.21013047 -8 21 C-3.68807302 21.15129568 -1.78533156 20.70478473 1.4375 17.8125 C3.29265694 14.4732175 3.54921489 12.76604494 3 9 C1.23526445 5.28843126 1.23526445 5.28843126 -2 3 C-7.14548665 2.42772474 -7.14548665 2.42772474 -11.4375 5 Z " fill="#111111" transform="translate(130,17)"/>
<path d="M0 0 C3.35211493 2.18616191 4.72686604 3.18059812 6 7 C4.02 7.99 4.02 7.99 2 9 C1.71125 8.360625 1.4225 7.72125 1.125 7.0625 C0.17176549 4.84793921 0.17176549 4.84793921 -2 4 C-3.37342831 3.9310528 -4.75002102 3.91532292 -6.125 3.9375 C-7.40375 3.958125 -8.6825 3.97875 -10 4 C-10.42595491 8.03650661 -10.42595491 8.03650661 -8.80078125 11.546875 C-5.953207 13.84470064 -2.69326136 15.12491341 0.625 16.62109375 C3.24918448 18.14467454 4.47901014 19.38839684 6 22 C6.53198011 26.787821 6.72509014 28.86402545 4.125 32.9375 C0.65479998 36.30563532 -1.98882446 36.4005294 -6.671875 36.34765625 C-10.70807034 35.74493581 -12.30763673 34.02890867 -15 31 C-15.875 28.1875 -15.875 28.1875 -16 26 C-15.01 25.67 -14.02 25.34 -13 25 C-12.46375 25.969375 -11.9275 26.93875 -11.375 27.9375 C-9.28978463 31.21222541 -9.28978463 31.21222541 -6 32 C-2.96368533 32 -1.50942169 31.64077572 1 30 C1.50125283 26.66857722 1.50125283 26.66857722 1 23 C-1.87116942 20.53899764 -4.70142091 19.13734638 -8.125 17.5625 C-11.51243713 15.72150156 -13.12199021 14.38041763 -15 11 C-15.22880822 8.14826833 -14.92762183 5.70654219 -14 3 C-9.80869212 -1.33101814 -5.65226485 -1.26688695 0 0 Z " fill="#111111" transform="translate(102,5)"/>
<path d="M0 0 C3 2.625 3 2.625 5 6 C5 8.31 5 10.62 5 13 C-0.94 13.33 -6.88 13.66 -13 14 C-10.62708831 19.20034217 -10.62708831 19.20034217 -6.6875 20.0625 C-2.24937262 19.9872775 -0.40778211 18.74284901 3 16 C3.66 16.33 4.32 16.66 5 17 C4.00449135 19.6245228 3.06036546 20.95028727 0.875 22.75 C-2.81850401 24.35587131 -6.07788782 24.84264129 -10 24 C-13.01784991 22.24392354 -15.41468217 20.17063565 -17 17 C-17.54923479 11.99385993 -17.52016569 8.07886216 -15.3125 3.5 C-10.94159183 -1.22530613 -6.14394365 -2.10578714 0 0 Z M-12 5 C-12.66 6.65 -13.32 8.3 -14 10 C-8.72 10 -3.44 10 2 10 C-0.03838621 4.90403447 -0.38670581 4.19131474 -5 2 C-8.02328074 2 -9.58150979 3.2465946 -12 5 Z " fill="#111111" transform="translate(182,17)"/>
<path d="M0 0 C2.58297781 2.18991597 4.48415844 3.96831688 6 7 C6 8.98 6 10.96 6 13 C-0.27 13 -6.54 13 -13 13 C-12.34 14.98 -11.68 16.96 -11 19 C-7.98735648 19.59222907 -5.07583023 20.05823431 -2 20 C0.5905727 18.24905348 0.5905727 18.24905348 2 16 C3.32 16.66 4.64 17.32 6 18 C0.23259991 23.91917378 0.23259991 23.91917378 -4.8125 24.25 C-8.64874143 24.19430139 -10.97136796 23.49416756 -14 21 C-16.91431188 16.35146732 -16.63734239 11.30331816 -16 6 C-14.2087612 2.7492333 -12.83510107 1.49654658 -9.6875 -0.375 C-6.04992671 -1.22094728 -3.60960985 -0.96685978 0 0 Z M-11 5 C-11.66 6.65 -12.32 8.3 -13 10 C-8.05 10 -3.1 10 2 10 C1.58267722 5.01067667 1.58267722 5.01067667 -1.4375 3.1875 C-5.65274284 1.23409478 -7.32906387 2.33857131 -11 5 Z " fill="#111111" transform="translate(222,17)"/>
<path d="M0 0 C0.99 0 1.98 0 3 0 C3.33 5.61 3.66 11.22 4 17 C5.32 16.34 6.64 15.68 8 15 C11.5625 15.0625 11.5625 15.0625 15 16 C18.89509355 20.448983 18.34965826 25.23675056 18.1875 30.8125 C18.16719727 32.13797852 18.16719727 32.13797852 18.14648438 33.49023438 C18.11129217 35.66042023 18.05748985 37.83029033 18 40 C16.68 40 15.36 40 14 40 C13.97494385 39.42967041 13.9498877 38.85934082 13.92407227 38.27172852 C13.80843451 35.70173843 13.68556376 33.13214473 13.5625 30.5625 C13.50352539 29.21575195 13.50352539 29.21575195 13.44335938 27.84179688 C13.40146484 26.98779297 13.35957031 26.13378906 13.31640625 25.25390625 C13.27974854 24.46314697 13.24309082 23.6723877 13.20532227 22.85766602 C13.19436743 20.98598559 13.19436743 20.98598559 12 20 C9.04195427 19.66659529 9.04195427 19.66659529 6 20 C4.0243438 22.96348429 3.73623141 23.68020373 3.5859375 27.01171875 C3.54726562 27.76904297 3.50859375 28.52636719 3.46875 29.30664062 C3.4378125 30.09232422 3.406875 30.87800781 3.375 31.6875 C3.33632812 32.48478516 3.29765625 33.28207031 3.2578125 34.10351562 C3.16367506 36.06863475 3.08075368 38.0342854 3 40 C2.01 40 1.02 40 0 40 C0 26.8 0 13.6 0 0 Z " fill="#111111" transform="translate(142,1)"/>
<path d="M0 0 C0.763125 0.20625 1.52625 0.4125 2.3125 0.625 C2.3125 1.615 2.3125 2.605 2.3125 3.625 C-0.3541419 4.95832095 -1.85430303 4.29602033 -4.6875 3.625 C-5.7265378 8.05182491 -6.00342951 12.41434632 -6.25 16.9375 C-6.29318359 17.67806641 -6.33636719 18.41863281 -6.38085938 19.18164062 C-6.48620432 20.99591464 -6.58728316 22.8104355 -6.6875 24.625 C-7.6775 24.625 -8.6675 24.625 -9.6875 24.625 C-9.6875 16.705 -9.6875 8.785 -9.6875 0.625 C-8.3675 0.955 -7.0475 1.285 -5.6875 1.625 C-2.6875 -0.375 -2.6875 -0.375 0 0 Z " fill="#111111" transform="translate(201.6875,16.375)"/>
</svg>
